<svg width="32" height="32" viewBox="0 0 40 40" fill="none" xmlns="http://www.w3.org/2000/svg">
<rect x="0" y="0" width="40" height="40" rx="8" ry="8" fill="white"/>
<g transform="translate(6, 3) scale(0.95)">
<path d="M14.2866 12.2291L14.2745 12.2361L18.5903 19.7504C19.169 20.6415 19.5067 21.7023 19.5067 22.8427C19.5067 23.9226 19.2053 24.9326 18.6812 25.7937L27.4749 22.9444L13.7187 0L10.4059 5.54022L14.2866 12.2291Z" fill="black"/>
<path d="M6.89145 34.3441L13.8001 28.5438C13.7944 28.5438 13.788 28.5438 13.7823 28.5438C10.6208 28.5438 8.05847 25.9915 8.05847 22.8433C8.05847 21.7061 8.39427 20.6478 8.97046 19.758L13.0528 12.6367L9.65986 6.78868L0 22.9451L6.88 34.3441H6.89145Z" fill="black"/>
<path d="M16.7205 27.7361C16.7205 27.7361 16.7199 27.7361 16.7192 27.7367L8.86362 34.3441H20.5211L26.4293 24.6584L16.7205 27.7367V27.7361Z" fill="black"/>
</g>
</svg>
