<svg width="201" height="40" viewBox="0 0 201 40" fill="none" xmlns="http://www.w3.org/2000/svg">
<path d="M184.074 30.1736L187.232 27.6468C188.32 29.4366 190.426 30.6299 192.567 30.6299C194.356 30.6299 196.006 29.9981 196.006 28.3487C196.006 26.7694 194.462 26.5939 191.549 25.9973C188.636 25.4007 185.302 24.6637 185.302 20.733C185.302 17.3639 188.25 14.9072 192.496 14.9072C195.725 14.9072 198.603 16.3461 199.936 18.3816L197.094 20.9436C196.041 19.2941 194.286 18.3466 192.251 18.3466C190.531 18.3466 189.408 19.1186 189.408 20.347C189.408 21.6806 190.742 21.9263 193.058 22.4176C196.181 23.0844 200.112 23.7512 200.112 27.9626C200.112 31.6827 196.708 34.0692 192.531 34.0692C189.127 34.0692 185.723 32.7005 184.074 30.1736Z" fill="black"/>
<path d="M172.447 24.4882C172.447 28.2434 174.412 30.4193 177.29 30.4193C179.536 30.4193 180.905 28.9453 181.431 26.9098L185.046 28.7347C184.098 31.7178 181.291 34.0692 177.29 34.0692C172.026 34.0692 168.236 30.1736 168.236 24.4882C168.236 18.8028 172.026 14.9072 177.29 14.9072C181.256 14.9072 183.993 17.1533 184.976 20.1013L181.431 22.0315C180.905 20.0311 179.536 18.522 177.29 18.522C174.412 18.522 172.447 20.733 172.447 24.4882Z" fill="black"/>
<path d="M168.047 24.4882C168.047 30.2087 164.362 34.0692 159.168 34.0692C153.974 34.0692 150.289 30.2087 150.289 24.4882C150.289 18.7677 153.974 14.9072 159.168 14.9072C164.362 14.9072 168.047 18.7677 168.047 24.4882ZM154.535 24.4882C154.535 28.2434 156.325 30.5246 159.168 30.5246C162.01 30.5246 163.8 28.2434 163.8 24.4882C163.8 20.733 162.01 18.4518 159.168 18.4518C156.325 18.4518 154.535 20.733 154.535 24.4882Z" fill="black"/>
<path d="M128.944 33.6832V8.48486H137.367C145.193 8.48486 150.036 13.3982 150.036 21.084C150.036 28.7699 145.193 33.6832 137.367 33.6832H128.944ZM133.331 29.8227H137.367C142.561 29.8227 145.614 26.3834 145.614 21.084C145.614 15.7496 142.561 12.3453 137.332 12.3453H133.331V29.8227Z" fill="black"/>
<path d="M111.476 34.0692C106.317 34.0692 103.369 29.7174 103.369 24.4883C103.369 19.2591 106.317 14.9073 111.476 14.9073C113.862 14.9073 115.617 15.8548 116.775 17.2236V8.48486H120.986V33.6832H116.775V31.7529C115.617 33.1217 113.862 34.0692 111.476 34.0692ZM116.88 23.9618C116.88 20.4874 114.915 18.5923 112.318 18.5923C109.265 18.5923 107.615 20.9787 107.615 24.4883C107.615 27.9978 109.265 30.3842 112.318 30.3842C114.915 30.3842 116.88 28.454 116.88 25.0498V23.9618Z" fill="black"/>
<path d="M97.7486 12.8016V8.48486H102.1V12.8016H97.7486ZM102.03 15.2582V33.6832H97.8188V15.2582H102.03Z" fill="black"/>
<path d="M95.3092 15.2593V33.6842H91.0979V31.7189C90.0451 32.9472 88.4658 34.0703 86.0794 34.0703C82.219 34.0703 79.8325 31.4381 79.8325 27.4724V15.2593H84.0439V26.5599C84.0439 28.806 85.0265 30.2449 87.3077 30.2449C89.2028 30.2449 91.0979 28.8411 91.0979 26.209V15.2593H95.3092Z" fill="black"/>
<path d="M67.9814 34.0692C62.8225 34.0692 59.8745 29.7174 59.8745 24.4882C59.8745 19.259 62.8225 14.9072 67.9814 14.9072C70.3678 14.9072 72.1225 15.8548 73.2806 17.2235V15.2582H77.492V40.0003H73.2806V31.7529C72.1225 33.1216 70.3678 34.0692 67.9814 34.0692ZM73.3859 23.9618C73.3859 20.4874 71.4206 18.5922 68.8236 18.5922C65.7704 18.5922 64.121 20.9787 64.121 24.4882C64.121 27.9977 65.7704 30.3842 68.8236 30.3842C71.4206 30.3842 73.3859 28.454 73.3859 25.0497V23.9618Z" fill="black"/>
<path d="M54.2571 12.8016V8.48486H58.6088V12.8016H54.2571ZM58.5386 15.2582V33.6832H54.3273V15.2582H58.5386Z" fill="black"/>
<path d="M37.172 33.6832V8.48486H41.6641V29.7525H53.5261V33.6832H37.172Z" fill="black"/>
<path d="M14.2866 12.2291L14.2745 12.2361L18.5903 19.7504C19.169 20.6415 19.5067 21.7023 19.5067 22.8427C19.5067 23.9226 19.2053 24.9326 18.6812 25.7937L27.4749 22.9444L13.7187 0L10.4059 5.54022L14.2866 12.2291Z" fill="black"/>
<path d="M6.89145 34.3441L13.8001 28.5438C13.7944 28.5438 13.788 28.5438 13.7823 28.5438C10.6208 28.5438 8.05847 25.9915 8.05847 22.8433C8.05847 21.7061 8.39427 20.6478 8.97046 19.758L13.0528 12.6367L9.65986 6.78868L0 22.9451L6.88 34.3441H6.89145Z" fill="black"/>
<path d="M16.7205 27.7361C16.7205 27.7361 16.7199 27.7361 16.7192 27.7367L8.86362 34.3441H20.5211L26.4293 24.6584L16.7205 27.7367V27.7361Z" fill="black"/>
</svg>
