<svg width="201" height="40" viewBox="0 0 201 40" fill="none" xmlns="http://www.w3.org/2000/svg">
<path d="M184.074 30.1734L187.232 27.6465C188.32 29.4364 190.426 30.6296 192.567 30.6296C194.356 30.6296 196.006 29.9979 196.006 28.3484C196.006 26.7691 194.462 26.5937 191.549 25.9971C188.636 25.4004 185.302 24.6634 185.302 20.7328C185.302 17.3636 188.25 14.907 192.496 14.907C195.725 14.907 198.603 16.3459 199.936 18.3814L197.094 20.9433C196.041 19.2939 194.286 18.3463 192.251 18.3463C190.531 18.3463 189.408 19.1184 189.408 20.3467C189.408 21.6803 190.742 21.926 193.058 22.4173C196.181 23.0842 200.112 23.751 200.112 27.9624C200.112 31.6825 196.708 34.0689 192.531 34.0689C189.127 34.0689 185.723 32.7002 184.074 30.1734Z" fill="white"/>
<path d="M172.447 24.488C172.447 28.2431 174.412 30.419 177.29 30.419C179.536 30.419 180.905 28.945 181.431 26.9095L185.046 28.7345C184.098 31.7176 181.291 34.0689 177.29 34.0689C172.026 34.0689 168.236 30.1734 168.236 24.488C168.236 18.8025 172.026 14.907 177.29 14.907C181.256 14.907 183.993 17.1531 184.976 20.1011L181.431 22.0313C180.905 20.0309 179.536 18.5218 177.29 18.5218C174.412 18.5218 172.447 20.7328 172.447 24.488Z" fill="white"/>
<path d="M168.047 24.488C168.047 30.2085 164.362 34.0689 159.168 34.0689C153.974 34.0689 150.289 30.2085 150.289 24.488C150.289 18.7675 153.974 14.907 159.168 14.907C164.362 14.907 168.047 18.7675 168.047 24.488ZM154.535 24.488C154.535 28.2431 156.325 30.5243 159.168 30.5243C162.01 30.5243 163.8 28.2431 163.8 24.488C163.8 20.7328 162.01 18.4516 159.168 18.4516C156.325 18.4516 154.535 20.7328 154.535 24.488Z" fill="white"/>
<path d="M128.944 33.6827V8.48438H137.367C145.193 8.48438 150.036 13.3977 150.036 21.0835C150.036 28.7694 145.193 33.6827 137.367 33.6827H128.944ZM133.331 29.8222H137.367C142.561 29.8222 145.614 26.3829 145.614 21.0835C145.614 15.7491 142.561 12.3448 137.332 12.3448H133.331V29.8222Z" fill="white"/>
<path d="M111.476 34.0687C106.317 34.0687 103.369 29.7169 103.369 24.4878C103.369 19.2586 106.317 14.9068 111.476 14.9068C113.862 14.9068 115.617 15.8544 116.775 17.2231V8.48438H120.986V33.6827H116.775V31.7525C115.617 33.1212 113.862 34.0687 111.476 34.0687ZM116.88 23.9613C116.88 20.4869 114.915 18.5918 112.318 18.5918C109.265 18.5918 107.615 20.9783 107.615 24.4878C107.615 27.9973 109.265 30.3838 112.318 30.3838C114.915 30.3838 116.88 28.4535 116.88 25.0493V23.9613Z" fill="white"/>
<path d="M97.7486 12.8011V8.48438H102.1V12.8011H97.7486ZM102.03 15.2577V33.6827H97.8188V15.2577H102.03Z" fill="white"/>
<path d="M95.3092 15.259V33.684H91.0979V31.7187C90.0451 32.947 88.4658 34.07 86.0794 34.07C82.219 34.07 79.8325 31.4379 79.8325 27.4721V15.259H84.0439V26.5597C84.0439 28.8058 85.0265 30.2447 87.3077 30.2447C89.2028 30.2447 91.0979 28.8409 91.0979 26.2087V15.259H95.3092Z" fill="white"/>
<path d="M67.9814 34.0689C62.8225 34.0689 59.8745 29.7171 59.8745 24.488C59.8745 19.2588 62.8225 14.907 67.9814 14.907C70.3678 14.907 72.1225 15.8546 73.2806 17.2233V15.2579H77.492V40H73.2806V31.7527C72.1225 33.1214 70.3678 34.0689 67.9814 34.0689ZM73.3859 23.9615C73.3859 20.4871 71.4206 18.592 68.8236 18.592C65.7704 18.592 64.121 20.9784 64.121 24.488C64.121 27.9975 65.7704 30.3839 68.8236 30.3839C71.4206 30.3839 73.3859 28.4537 73.3859 25.0495V23.9615Z" fill="white"/>
<path d="M54.2571 12.8011V8.48438H58.6088V12.8011H54.2571ZM58.5386 15.2577V33.6827H54.3273V15.2577H58.5386Z" fill="white"/>
<path d="M37.172 33.6829V8.48462H41.6641V29.7523H53.5261V33.6829H37.172Z" fill="white"/>
<path d="M14.2866 12.2291L14.2745 12.2361L18.5903 19.7504C19.169 20.6415 19.5067 21.7023 19.5067 22.8427C19.5067 23.9226 19.2053 24.9326 18.6812 25.7937L27.4749 22.9444L13.7187 0L10.4059 5.54022L14.2866 12.2291Z" fill="white"/>
<path d="M6.89145 34.3441L13.8001 28.5438C13.7944 28.5438 13.788 28.5438 13.7823 28.5438C10.6208 28.5438 8.05847 25.9915 8.05847 22.8433C8.05847 21.7061 8.39427 20.6478 8.97046 19.758L13.0528 12.6367L9.65986 6.78868L0 22.9451L6.88 34.3441H6.89145Z" fill="white"/>
<path d="M16.7205 27.7361C16.7205 27.7361 16.7199 27.7361 16.7192 27.7367L8.86362 34.3441H20.5211L26.4293 24.6584L16.7205 27.7367V27.7361Z" fill="white"/>
</svg>
